<?xml version="1.0" standalone="no"?>
<!DOCTYPE svg PUBLIC "-//W3C//DTD SVG 20010904//EN"
 "http://www.w3.org/TR/2001/REC-SVG-20010904/DTD/svg10.dtd">
<svg version="1.0" xmlns="http://www.w3.org/2000/svg"
 width="544.000000pt" height="544.000000pt" viewBox="0 0 544.000000 544.000000"
 preserveAspectRatio="xMidYMid meet">
<metadata>
Created by potrace 1.11, written by Peter Selinger 2001-2013
</metadata>
<g transform="translate(0.000000,544.000000) scale(0.100000,-0.100000)"
fill="#000000" stroke="none">
<path d="M1596 5263 c-1 -1 -41 -3 -89 -4 -99 -2 -159 -24 -217 -80 -40 -38
-78 -110 -86 -160 -7 -54 -6 -4481 2 -4525 3 -21 13 -52 21 -67 7 -15 11 -33
7 -39 -4 -7 -3 -8 4 -4 6 4 18 -5 28 -18 9 -14 36 -38 60 -54 24 -16 40 -33
36 -37 -4 -5 -2 -5 4 -2 6 4 26 2 45 -4 22 -6 479 -9 1319 -8 707 0 1295 2
1307 2 11 1 19 5 16 10 -2 4 2 7 9 7 14 1 127 70 113 70 -5 0 0 8 11 19 11 10
26 33 34 50 7 17 15 31 19 31 4 0 7 10 8 23 3 49 2 4543 0 4557 -2 8 -11 32
-20 54 -9 21 -17 40 -17 43 0 9 -96 93 -112 99 -10 3 -16 8 -14 12 12 19 -185
23 -1357 25 -621 1 -1130 1 -1131 0z"/>
</g>
</svg>
